#Comment line ignore any data following # character 
#Hierarchical Translation and Rotation (.htr) file 
[Header]	
#Header keywords are followed by a single value 
FileType HTR		#Single word string
DataType HTRS		#Translation followed by rotation and scale data
FileVersion 1		#integer
NumSegments 64		#integer
NumFrames 3		#integer
DataFrameRate 30		#integer, data frame rate in this file
EulerRotationOrder ZYX
CalibrationUnits mm
RotationUnits Degrees
GlobalAxisofGravity Y
BoneLengthAxis Y
ScaleFactor 1.00
[SegmentNames&Hierarchy]
#CHILD	PARENT
Pinger_Root GLOBAL
Pelvis Pinger_Root
L_Hip Pelvis
R_Hip Pelvis
Rear_Leg01 Pelvis
Spine1 Pelvis
L_Leg01 L_Hip
L_Leg02 L_Leg01
L_Leg03 L_Leg02
L_Foot L_Leg03
L_Toe1_01 L_Foot
L_Toe2_01 L_Foot
L_Toe3_01 L_Foot
planeAlignerLeft L_Foot
L_Toe1_02 L_Toe1_01
L_Toe1_03 L_Toe1_02
L_Toe2_02 L_Toe2_01
L_Toe2_03 L_Toe2_02
L_Toe3_02 L_Toe3_01
L_Toe3_03 L_Toe3_02
planeLockWeightLeft planeAlignerLeft
R_Leg01 R_Hip
R_Leg02 R_Leg01
R_Leg03 R_Leg02
R_Foot R_Leg03
planeAlignerRight R_Foot
R_Toe1_01 R_Foot
R_Toe2_01 R_Foot
R_Toe3_01 R_Foot
planeLockWeightRight planeAlignerRight
R_Toe1_02 R_Toe1_01
R_Toe1_03 R_Toe1_02
R_Toe2_02 R_Toe2_01
R_Toe2_03 R_Toe2_02
R_Toe3_02 R_Toe3_01
R_Toe3_03 R_Toe3_02
Rear_Leg02 Rear_Leg01
Rear_Leg03 Rear_Leg02
Rear_Leg04 Rear_Leg03
Rear_Foot Rear_Leg04
planeAlignerCenter Rear_Foot
Rear_Toe1_01 Rear_Foot
Rear_Toe2_01 Rear_Foot
Rear_Toe3_01 Rear_Foot
planeLockWeightCenter planeAlignerCenter
Rear_Toe1_02 Rear_Toe1_01
Rear_Toe1_03 Rear_Toe1_02
Rear_Toe2_02 Rear_Toe2_01
Rear_Toe2_03 Rear_Toe2_02
Rear_Toe3_02 Rear_Toe3_01
Rear_Toe3_03 Rear_Toe3_02
Back_Bone Spine1
Head Spine1
Motor_Bone Back_Bone
Ping_Mechanism Back_Bone
BN_LookIK Head
bottomMouth Head
L_Mouth01 Head
L_mouthFront Head
mouthGun Head
R_Mouth01 Head
R_mouthFront Head
TopMouth Head
weapon_bone Head
[BasePosition]
#SegmentName Tx, Ty, Tz, Rx, Ry, Rz, BoneLength
Pinger_Root 0.000000 0.000000 0.000000 -90.000000 0.000000 0.000000 10.000000 
Pelvis 0.000000 0.000000 0.000000 0.000000 0.000000 0.000000 10.000000 
L_Hip 0.000000 0.000000 0.000000 0.000000 0.000000 0.000000 10.000000 
R_Hip 0.000000 0.000000 0.000000 0.000000 0.000000 0.000000 10.000000 
Rear_Leg01 0.000000 0.000000 0.000000 0.000000 0.000000 0.000000 10.000000 
Spine1 0.000000 0.000000 0.000000 0.000000 0.000000 0.000000 10.000000 
L_Leg01 0.000000 0.000000 0.000000 0.000000 0.000000 0.000000 10.000000 
L_Leg02 0.000000 0.000000 0.000000 0.000000 0.000000 0.000000 10.000000 
L_Leg03 0.000000 0.000000 0.000000 0.000000 0.000000 0.000000 10.000000 
L_Foot 0.000000 0.000000 0.000000 0.000000 0.000000 0.000000 10.000000 
L_Toe1_01 0.000000 0.000000 0.000000 0.000000 0.000000 0.000000 10.000000 
L_Toe2_01 0.000000 0.000000 0.000000 0.000000 0.000000 0.000000 10.000000 
L_Toe3_01 0.000000 0.000000 0.000000 0.000000 0.000000 0.000000 10.000000 
planeAlignerLeft 0.000000 0.000000 0.000000 0.000000 0.000000 0.000000 10.000000 
L_Toe1_02 0.000000 0.000000 0.000000 0.000000 0.000000 0.000000 10.000000 
L_Toe1_03 0.000000 0.000000 0.000000 0.000000 0.000000 0.000000 10.000000 
L_Toe2_02 0.000000 0.000000 0.000000 0.000000 0.000000 0.000000 10.000000 
L_Toe2_03 0.000000 0.000000 0.000000 0.000000 0.000000 0.000000 10.000000 
L_Toe3_02 0.000000 0.000000 0.000000 0.000000 0.000000 0.000000 10.000000 
L_Toe3_03 0.000000 0.000000 0.000000 0.000000 0.000000 0.000000 10.000000 
planeLockWeightLeft 0.000000 0.000000 0.000000 0.000000 0.000000 0.000000 10.000000 
R_Leg01 0.000000 0.000000 0.000000 0.000000 0.000000 0.000000 10.000000 
R_Leg02 0.000000 0.000000 0.000000 0.000000 0.000000 0.000000 10.000000 
R_Leg03 0.000000 0.000000 0.000000 0.000000 0.000000 0.000000 10.000000 
R_Foot 0.000000 0.000000 0.000000 0.000000 0.000000 0.000000 10.000000 
planeAlignerRight 0.000000 0.000000 0.000000 0.000000 0.000000 0.000000 10.000000 
R_Toe1_01 0.000000 0.000000 0.000000 0.000000 0.000000 0.000000 10.000000 
R_Toe2_01 0.000000 0.000000 0.000000 0.000000 0.000000 0.000000 10.000000 
R_Toe3_01 0.000000 0.000000 0.000000 0.000000 0.000000 0.000000 10.000000 
planeLockWeightRight 0.000000 0.000000 0.000000 0.000000 0.000000 0.000000 10.000000 
R_Toe1_02 0.000000 0.000000 0.000000 0.000000 0.000000 0.000000 10.000000 
R_Toe1_03 0.000000 0.000000 0.000000 0.000000 0.000000 0.000000 10.000000 
R_Toe2_02 0.000000 0.000000 0.000000 0.000000 0.000000 0.000000 10.000000 
R_Toe2_03 0.000000 0.000000 0.000000 0.000000 0.000000 0.000000 10.000000 
R_Toe3_02 0.000000 0.000000 0.000000 0.000000 0.000000 0.000000 10.000000 
R_Toe3_03 0.000000 0.000000 0.000000 0.000000 0.000000 0.000000 10.000000 
Rear_Leg02 0.000000 0.000000 0.000000 0.000000 0.000000 0.000000 10.000000 
Rear_Leg03 0.000000 0.000000 0.000000 0.000000 0.000000 0.000000 10.000000 
Rear_Leg04 0.000000 0.000000 0.000000 0.000000 0.000000 0.000000 10.000000 
Rear_Foot 0.000000 0.000000 0.000000 0.000000 0.000000 0.000000 10.000000 
planeAlignerCenter 0.000000 0.000000 0.000000 0.000000 0.000000 0.000000 10.000000 
Rear_Toe1_01 0.000000 0.000000 0.000000 0.000000 0.000000 0.000000 10.000000 
Rear_Toe2_01 0.000000 0.000000 0.000000 0.000000 0.000000 0.000000 10.000000 
Rear_Toe3_01 0.000000 0.000000 0.000000 0.000000 0.000000 0.000000 10.000000 
planeLockWeightCenter 0.000000 0.000000 0.000000 0.000000 0.000000 0.000000 10.000000 
Rear_Toe1_02 0.000000 0.000000 0.000000 0.000000 0.000000 0.000000 10.000000 
Rear_Toe1_03 0.000000 0.000000 0.000000 0.000000 0.000000 0.000000 10.000000 
Rear_Toe2_02 0.000000 0.000000 0.000000 0.000000 0.000000 0.000000 10.000000 
Rear_Toe2_03 0.000000 0.000000 0.000000 0.000000 0.000000 0.000000 10.000000 
Rear_Toe3_02 0.000000 0.000000 0.000000 0.000000 0.000000 0.000000 10.000000 
Rear_Toe3_03 0.000000 0.000000 0.000000 0.000000 0.000000 0.000000 10.000000 
Back_Bone 0.000000 0.000000 0.000000 0.000000 0.000000 0.000000 10.000000 
Head 0.000000 0.000000 0.000000 0.000000 0.000000 0.000000 10.000000 
Motor_Bone 0.000000 0.000000 0.000000 0.000000 0.000000 0.000000 10.000000 
Ping_Mechanism 0.000000 0.000000 0.000000 0.000000 0.000000 0.000000 10.000000 
BN_LookIK 0.000000 0.000000 0.000000 0.000000 0.000000 0.000000 10.000000 
bottomMouth 0.000000 0.000000 0.000000 0.000000 0.000000 0.000000 10.000000 
L_Mouth01 0.000000 0.000000 0.000000 0.000000 0.000000 0.000000 10.000000 
L_mouthFront 0.000000 0.000000 0.000000 0.000000 0.000000 0.000000 10.000000 
mouthGun 0.000000 0.000000 0.000000 0.000000 0.000000 0.000000 10.000000 
R_Mouth01 0.000000 0.000000 0.000000 0.000000 0.000000 0.000000 10.000000 
R_mouthFront 0.000000 0.000000 0.000000 0.000000 0.000000 0.000000 10.000000 
TopMouth 0.000000 0.000000 0.000000 0.000000 0.000000 0.000000 10.000000 
weapon_bone 0.000000 0.000000 0.000000 0.000000 0.000000 0.000000 10.000000 
#Beginning of Data. Separated by tabs
#Fr	Tx	Ty	Tz	Rx	Ry	Rz	SF
[Pinger_Root]
32 0.000000 0.000000 0.000000 -0.000075 -0.000000 -0.000020 0.000000
33 0.000000 0.000000 0.000000 -0.000075 -0.000000 -0.000020 0.000000
34 0.000000 0.000000 0.000000 -0.000075 -0.000000 -0.000020 0.000000
[Pelvis]
32 -217.054657 -590.643494 3474.190186 -144.295593 -73.027328 133.119919 3530.718018
33 -190.277252 -442.944885 3497.540039 -142.308075 -74.378479 131.516571 3530.607910
34 -160.098724 -294.435699 3525.916992 -138.425568 -76.318359 128.364944 3541.809570
[L_Hip]
32 5.766392 125.831482 872.656799 -154.058868 -57.156254 66.525391 881.701050
33 5.766392 125.831482 872.656799 -154.058868 -57.156254 66.525391 881.701050
34 5.766392 125.831482 872.656799 -154.058868 -57.156254 66.525391 881.701050
[R_Hip]
32 5.765438 125.836372 -872.654907 -2.520501 82.413048 74.352089 881.699829
33 5.765438 125.836372 -872.654907 -2.520501 82.413048 74.352089 881.699829
34 5.765438 125.836372 -872.654907 -2.520501 82.413048 74.352089 881.699829
[Rear_Leg01]
32 -192.298416 -925.602966 -0.001907 117.268356 -7.452221 -142.585220 945.367432
33 -192.298416 -925.602966 -0.001907 117.967010 -6.708935 -141.138702 945.367432
34 -192.298416 -925.602966 -0.001907 119.408112 -5.857355 -139.647064 945.367432
[Spine1]
32 290.604584 5.007505 0.000477 15.667480 6.914731 13.854503 290.647736
33 290.604584 5.007505 0.000477 14.938107 6.033779 14.190061 290.647736
34 290.604584 5.007505 0.000477 13.680636 4.650701 14.693783 290.647736
[L_Leg01]
32 761.932007 -0.002384 -0.069261 16.978836 -39.154163 -2.709479 761.932068
33 761.932007 -0.002384 -0.069261 17.124117 -39.367653 -4.063575 761.932068
34 761.932007 -0.002384 -0.069261 17.973463 -39.696972 -7.707415 761.932068
[L_Leg02]
32 1441.140503 -0.000954 -0.000715 -0.911494 0.322351 -113.021851 1441.140503
33 1441.140503 -0.000954 -0.000715 -0.534343 0.195649 -116.376122 1441.140503
34 1441.140503 -0.000954 -0.000715 -0.254554 0.110950 -117.883247 1441.140503
[L_Leg03]
32 1686.963989 -0.000715 -0.000954 0.026240 -0.006573 103.273544 1686.963989
33 1686.963989 -0.000715 -0.000954 0.021952 -0.005410 104.365761 1686.963989
34 1686.963989 -0.000715 -0.000954 0.017686 -0.004165 105.458206 1686.963989
[L_Foot]
32 3041.570068 -30.715107 11.297464 -2.204362 2.750023 25.605322 3041.746094
33 3041.570068 -30.715107 11.297464 -2.356514 2.882411 28.144512 3041.746094
34 3041.570068 -30.715107 11.297464 -2.336986 2.995533 30.424744 3041.746094
[L_Toe1_01]
32 -188.216690 -224.732346 -21.137953 94.280670 -28.131250 179.902283 293.899567
33 -188.216690 -224.732346 -21.137953 94.280670 -28.131250 179.902283 293.899567
34 -188.216690 -224.732346 -21.137953 94.280670 -28.131250 179.902283 293.899567
[L_Toe2_01]
32 200.746536 -219.926590 148.838394 -108.981255 -14.926682 -28.371639 332.896027
33 200.746536 -219.926590 148.838394 -108.981255 -14.926610 -28.371744 332.896027
34 200.746536 -219.926590 148.838394 -108.981247 -14.926540 -28.371845 332.896027
[L_Toe3_01]
32 188.832520 -219.859131 -191.078659 -119.528816 36.514465 -78.862701 347.140900
33 188.832520 -219.859131 -191.078659 -119.528816 36.514465 -78.862701 347.140900
34 188.832520 -219.859131 -191.078659 -119.528816 36.514465 -78.862701 347.140900
[planeAlignerLeft]
32 0.812531 -811.448792 -0.314951 0.000000 -90.000000 -90.001900 811.449280
33 0.812531 -811.448792 -0.314951 0.000000 -90.000000 -90.001900 811.449280
34 0.812531 -811.448792 -0.314951 0.000000 -90.000000 -90.001900 811.449280
[L_Toe1_02]
32 413.761139 0.000477 0.000000 0.001661 0.070897 0.001661 413.761139
33 413.761139 0.000477 0.000000 0.001661 0.070897 0.001661 413.761139
34 413.761139 0.000477 0.000000 0.001661 0.070897 0.001661 413.761139
[L_Toe1_03]
32 464.317322 0.000358 -0.000089 0.001673 -0.448396 -0.003292 464.317322
33 464.317322 0.000358 -0.000089 0.001673 -0.448396 -0.003292 464.317322
34 464.317322 0.000358 -0.000089 0.001673 -0.448396 -0.003292 464.317322
[L_Toe2_02]
32 342.235809 -0.000477 0.000238 0.004684 -81.235184 0.004684 342.235809
33 342.235809 -0.000477 0.000238 0.004684 -81.235542 0.004684 342.235809
34 342.235809 -0.000477 0.000238 0.004684 -81.235855 0.004684 342.235809
[L_Toe2_03]
32 420.210846 -0.000715 0.000000 179.993195 44.163803 -179.999222 420.210846
33 420.210846 -0.000715 0.000000 179.993195 44.163803 -179.999222 420.210846
34 420.210846 -0.000715 0.000000 179.993195 44.163803 -179.999222 420.210846
[L_Toe3_02]
32 329.270111 0.000954 0.000000 0.004675 -84.670197 0.004675 329.270111
33 329.270111 0.000954 0.000000 0.004675 -84.669571 0.004675 329.270111
34 329.270111 0.000954 0.000000 0.004675 -84.668953 0.004675 329.270111
[L_Toe3_03]
32 439.137451 -0.001907 0.000954 179.993454 37.691124 -179.998764 439.137451
33 439.137451 -0.001907 0.000954 179.993454 37.691124 -179.998764 439.137451
34 439.137451 -0.001907 0.000954 179.993454 37.691116 -179.998764 439.137451
[planeLockWeightLeft]
32 -0.000954 0.000238 -0.000305 -0.011826 -0.004376 0.005620 0.001029
33 -0.000954 0.000238 -0.000305 -0.011826 -0.004376 0.005620 0.001029
34 -0.000954 0.000238 -0.000305 -0.011826 -0.004376 0.005620 0.001029
[R_Leg01]
32 761.455627 -0.001907 -0.000358 99.424698 -44.924316 78.852448 761.455688
33 761.455627 -0.001907 -0.000358 98.977470 -46.085716 77.707695 761.455688
34 761.455627 -0.001907 -0.000358 98.812225 -47.092316 75.696022 761.455688
[R_Leg02]
32 1441.140625 0.000000 -0.000238 1.179414 -0.235152 -88.673416 1441.140625
33 1441.140625 0.000000 -0.000238 0.620441 -0.071899 -99.822601 1441.140625
34 1441.140625 0.000000 -0.000238 -0.125520 0.023494 -111.610603 1441.140625
[R_Leg03]
32 1686.963989 0.000954 0.001431 -0.011510 0.001733 107.121132 1686.963989
33 1686.963989 0.000954 0.001431 0.009161 -0.001821 112.483429 1686.963989
34 1686.963989 0.000954 0.001431 0.025226 -0.009766 117.474693 1686.963989
[R_Foot]
32 3041.560059 -30.531288 -11.204481 0.795548 -25.510113 26.898170 3041.734131
33 3041.560059 -30.531288 -11.204481 0.185085 -26.380594 31.187454 3041.734131
34 3041.560059 -30.531288 -11.204481 -0.701465 -27.171822 36.452446 3041.734131
[planeAlignerRight]
32 -0.635147 -812.270569 -0.364304 0.000000 -89.960434 -90.005180 812.270874
33 -0.635147 -812.270569 -0.364304 0.000000 -89.960434 -90.005180 812.270874
34 -0.635147 -812.270569 -0.364304 0.000000 -89.960434 -90.005180 812.270874
[R_Toe1_01]
32 -188.383347 -224.864899 21.052242 77.129410 0.587903 -178.875504 294.101532
33 -188.383347 -224.864899 21.052242 77.038094 -1.217607 175.083466 294.101532
34 -188.383347 -224.864899 21.052242 77.097755 -2.605895 171.359360 294.101532
[R_Toe2_01]
32 200.637817 -220.002121 -148.787384 -87.594093 38.150066 -49.089714 332.857574
33 200.637817 -220.002121 -148.787384 -87.357178 35.204605 -49.958225 332.857574
34 200.637817 -220.002121 -148.787384 -85.286545 32.637779 -47.704014 332.857574
[R_Toe3_01]
32 188.606735 -220.092957 191.126343 -73.953194 -11.986205 -63.448448 347.192566
33 188.606735 -220.092957 191.126343 -73.565895 -9.455740 -63.647800 347.192566
34 188.606735 -220.092957 191.126343 -73.599579 -7.465258 -63.411423 347.192566
[planeLockWeightRight]
32 -0.000477 0.000000 0.000000 -0.011823 -0.004379 -0.000027 0.000477
33 -0.000477 0.000000 0.000000 -0.011823 -0.004379 -0.000027 0.000477
34 -0.000477 0.000000 0.000000 -0.011823 -0.004379 -0.000027 0.000477
[R_Toe1_02]
32 413.762085 0.000477 -0.000119 0.001389 -25.302759 0.001389 413.762085
33 413.762085 0.000477 -0.000119 0.001420 -21.484455 0.001420 413.762085
34 413.762085 0.000477 -0.000119 0.001460 -16.989658 0.001460 413.762085
[R_Toe1_03]
32 464.317810 0.000000 0.001088 0.005375 64.777489 0.005375 464.317810
33 464.317810 0.000000 0.001088 -0.014835 84.965454 -0.011335 464.317810
34 464.317810 0.000000 0.001088 -179.995377 79.658127 -179.991867 464.317810
[R_Toe2_02]
32 342.234741 -0.000954 0.000238 -0.002343 -75.172569 -0.002343 342.234741
33 342.234741 -0.000954 0.000238 0.001195 -68.168167 0.001195 342.234741
34 342.234741 -0.000954 0.000238 0.001231 -54.854984 0.001231 342.234741
[R_Toe2_03]
32 420.210846 0.000715 -0.000268 -179.980377 86.314224 -179.983871 420.210846
33 420.210846 0.000715 -0.000268 0.009329 75.545662 0.009329 420.210846
34 420.210846 0.000715 -0.000268 -0.003667 53.287514 0.000017 420.210846
[R_Toe3_02]
32 329.270355 -0.000477 -0.000954 0.001176 -82.293701 0.001176 329.270355
33 329.270355 -0.000477 -0.000954 0.001179 -78.550346 0.001179 329.270355
34 329.270355 -0.000477 -0.000954 0.001189 -71.534256 0.001189 329.270355
[R_Toe3_03]
32 439.137939 0.000238 0.001431 -179.998428 70.257042 -179.994873 439.137939
33 439.137939 0.000238 0.001431 -179.987350 85.429153 -179.983826 439.137939
34 439.137939 0.000238 0.001431 0.010064 76.606926 0.010064 439.137939
[Rear_Leg02]
32 1162.777710 -0.029802 0.005960 -33.848423 43.493820 -140.089874 1162.777710
33 1162.777710 -0.029802 0.005960 -28.251722 46.847134 -132.150314 1162.777710
34 1162.777710 -0.029802 0.005960 -21.656967 49.587605 -123.261841 1162.777710
[Rear_Leg03]
32 607.192505 -0.013351 -0.073195 0.010352 -0.005384 71.312843 607.192505
33 607.192505 -0.013351 -0.073195 0.010446 -0.005200 69.280525 607.192505
34 607.192505 -0.013351 -0.073195 0.010548 -0.004995 67.040947 607.192505
[Rear_Leg04]
32 995.874512 -0.020504 -0.011921 -0.041167 -0.016561 73.531860 995.874573
33 995.874512 -0.020504 -0.011921 -0.042511 -0.016910 68.673027 995.874573
34 995.874512 -0.020504 -0.011921 -0.043820 -0.017372 63.814163 995.874573
[Rear_Foot]
32 3096.176270 -0.067472 -0.041425 95.949471 43.384495 -68.025543 3096.176270
33 3096.176270 -0.067472 -0.041425 96.699730 43.488049 -65.981422 3096.176270
34 3096.176270 -0.067472 -0.041425 97.455803 43.572079 -63.932407 3096.176270
[planeAlignerCenter]
32 0.350077 0.966311 -838.790894 0.000009 0.000003 -179.999985 838.791565
33 0.350077 0.966311 -838.790894 0.000009 0.000003 -179.999985 838.791565
34 0.350077 0.966311 -838.790894 0.000009 0.000003 -179.999985 838.791565
[Rear_Toe1_01]
32 0.653352 83.966492 -371.173737 -30.743706 22.787958 86.613861 380.553192
33 0.653352 83.966492 -371.173737 -30.744020 22.787600 86.613403 380.553192
34 0.653352 83.966492 -371.173737 -30.744328 22.787235 86.612938 380.553192
[Rear_Toe2_01]
32 178.200760 -294.826019 -362.060547 -8.139462 -0.246066 -62.282555 499.765686
33 178.200760 -294.826019 -362.060547 -8.139573 -0.246345 -62.280289 499.765686
34 178.200760 -294.826019 -362.060547 -8.139688 -0.246624 -62.278027 499.765686
[Rear_Toe3_01]
32 -153.359680 -308.780914 -362.060852 3.735535 13.489367 -102.764519 499.952881
33 -153.359680 -308.780914 -362.060852 3.735559 13.489926 -102.761765 499.952881
34 -153.359680 -308.780914 -362.060852 3.735583 13.490491 -102.759026 499.952881
[planeLockWeightCenter]
32 -0.000062 0.000238 0.000000 -0.011814 -0.004373 -0.000015 0.000246
33 -0.000062 0.000238 0.000000 -0.011814 -0.004373 -0.000015 0.000246
34 -0.000062 0.000238 0.000000 -0.011814 -0.004373 -0.000015 0.000246
[Rear_Toe1_02]
32 379.707825 0.194073 0.000477 -0.006719 -30.019583 -0.006719 379.707855
33 379.707825 0.194073 0.000477 -0.006719 -30.019583 -0.006719 379.707855
34 379.707825 0.194073 0.000477 -0.006719 -30.019583 -0.006719 379.707855
[Rear_Toe1_03]
32 500.129700 0.165701 0.000119 -179.994812 70.620605 -179.998367 500.129761
33 500.129700 0.165701 0.000119 -179.994812 70.623291 -179.998352 500.129761
34 500.129700 0.165701 0.000119 -179.994812 70.625954 -179.998352 500.129761
[Rear_Toe2_02]
32 340.494507 0.000238 -0.000954 0.001661 0.062316 0.001661 340.494507
33 340.494507 0.000238 -0.000954 0.001661 0.062171 0.001661 340.494507
34 340.494507 0.000238 -0.000954 0.001661 0.062025 0.001661 340.494507
[Rear_Toe2_03]
32 433.103577 0.000000 0.000238 -0.003297 -0.804494 0.001683 433.103546
33 433.103577 0.000000 0.000238 -0.003297 -0.804494 0.001683 433.103546
34 433.103577 0.000000 0.000238 -0.003297 -0.804494 0.001683 433.103546
[Rear_Toe3_02]
32 340.494141 -0.000358 -0.000477 -0.002600 -36.654480 -0.002600 340.494171
33 340.494141 -0.000358 -0.000477 -0.002600 -36.654480 -0.002600 340.494171
34 340.494141 -0.000358 -0.000477 -0.002600 -36.654480 -0.002600 340.494171
[Rear_Toe3_03]
32 433.103577 0.001431 -0.000238 0.006396 30.714851 -0.001650 433.103546
33 433.103577 0.001431 -0.000238 0.006396 30.714851 -0.001650 433.103546
34 433.103577 0.001431 -0.000238 0.006396 30.714851 -0.001650 433.103546
[Back_Bone]
32 1312.175781 -701.934692 0.000954 7.704831 -19.154350 -87.882057 1488.125488
33 1312.175781 -701.934692 0.000954 7.316350 -19.157524 -88.194641 1488.125488
34 1312.175781 -701.934692 0.000954 7.072381 -18.875826 -88.944702 1488.125488
[Head]
32 1406.159424 809.709290 0.001431 -0.808801 -1.373296 39.649330 1622.625488
33 1406.159424 809.709290 0.001431 -0.698719 -1.436569 38.122078 1622.625488
34 1406.159424 809.709290 0.001431 -0.542685 -1.491176 36.184456 1622.625488
[Motor_Bone]
32 1158.364380 -417.834747 0.000477 -8.378173 -17.361578 -108.213127 1231.419434
33 1158.364380 -417.834747 0.000477 -8.355995 -16.910585 -108.276970 1231.419434
34 1158.364380 -417.834747 0.000477 -8.334393 -16.459566 -108.340469 1231.419434
[Ping_Mechanism]
32 1258.603271 -439.665649 -69.839806 0.000103 -0.000053 82.120995 1335.015137
33 1255.018188 -452.056702 -63.264019 0.000103 -0.000053 82.120995 1335.450562
34 1252.506470 -455.510803 -53.183514 0.000103 -0.000053 82.120995 1333.825806
[BN_LookIK]
32 193.241119 1380.371704 -0.002861 0.000000 89.965736 -31.038179 1393.832153
33 193.241119 1380.371704 -0.002861 0.000000 89.965736 -31.038179 1393.832153
34 193.241119 1380.371704 -0.002861 0.000000 89.965736 -31.038179 1393.832153
[bottomMouth]
32 -435.092926 615.759399 -0.000954 -0.000022 0.000016 73.527184 753.966492
33 -435.092926 615.759399 -0.000954 -0.000022 0.000016 73.527184 753.966492
34 -435.092926 615.759399 -0.000954 -0.000022 0.000016 73.527184 753.966492
[L_Mouth01]
32 554.440979 7.658243 838.222046 150.204178 23.759130 109.605339 1005.027161
33 554.440979 7.658243 838.222046 150.204178 23.759130 109.605339 1005.027161
34 554.440979 7.658243 838.222046 150.204178 23.759130 109.605339 1005.027161
[L_mouthFront]
32 551.629089 934.514771 339.150421 0.000081 2.804060 79.119301 1136.941284
33 551.629089 934.514771 339.150421 0.000081 2.804060 79.119301 1136.941284
34 551.629089 934.514771 339.150421 0.000081 2.804060 79.119301 1136.941284
[mouthGun]
32 55.332661 1627.420898 0.000000 0.000023 0.000009 -11.038128 1628.361328
33 55.332661 1627.420898 0.000000 0.000023 0.000009 -11.038128 1628.361328
34 55.332661 1627.420898 0.000000 0.000023 0.000009 -11.038128 1628.361328
[R_Mouth01]
32 554.442383 7.659197 -838.223938 29.795891 -23.759109 109.605331 1005.029541
33 554.442383 7.659197 -838.223938 29.795891 -23.759109 109.605331 1005.029541
34 554.442383 7.659197 -838.223938 29.795891 -23.759109 109.605331 1005.029541
[R_mouthFront]
32 551.629089 934.514282 -339.151367 0.000029 -2.803930 79.119133 1136.941162
33 551.629089 934.514282 -339.151367 0.000029 -2.803930 79.119133 1136.941162
34 551.629089 934.514282 -339.151367 0.000029 -2.803930 79.119133 1136.941162
[TopMouth]
32 461.269867 -56.106091 -0.008583 -0.000059 -0.000268 92.025169 464.669525
33 461.269867 -56.106091 -0.008583 -0.000059 -0.000268 92.025169 464.669525
34 461.269867 -56.106091 -0.008583 -0.000059 -0.000268 92.025169 464.669525
[weapon_bone]
32 -987.239868 1448.372803 0.001431 0.000000 89.965736 -31.038221 1752.833740
33 -987.239868 1448.372803 0.001431 0.000000 89.965736 -31.038221 1752.833740
34 -987.239868 1448.372803 0.001431 0.000000 89.965736 -31.038221 1752.833740
